<?xml version="1.0" standalone="no"?>
<!DOCTYPE svg PUBLIC "-//W3C//DTD SVG 20010904//EN"
 "http://www.w3.org/TR/2001/REC-SVG-20010904/DTD/svg10.dtd">
<svg version="1.0" xmlns="http://www.w3.org/2000/svg"
 width="767.000000pt" height="434.000000pt" viewBox="0 0 767.000000 434.000000"
 preserveAspectRatio="xMidYMid meet">
<metadata>
Created by potrace 1.14, written by Peter Selinger 2001-2017
</metadata>
<g transform="translate(0.000000,434.000000) scale(0.100000,-0.100000)"
fill="#000000" stroke="none">
<path d="M6515 3669 c-127 -8 -225 -30 -365 -80 -47 -16 -97 -34 -112 -40 -73
-25 -97 -33 -143 -52 -63 -25 -151 -64 -190 -85 -40 -21 -176 -120 -195 -142
-8 -9 -60 -53 -115 -97 -123 -99 -164 -139 -204 -198 -36 -54 -41 -95 -11 -95
13 0 20 7 20 20 0 12 11 31 25 44 14 13 25 30 25 38 0 10 15 19 40 26 37 9 42
8 60 -15 l19 -25 12 28 c40 104 123 214 160 214 10 0 19 4 19 9 0 5 10 13 22
17 13 4 43 24 68 44 55 46 127 83 146 76 11 -4 6 -17 -21 -56 -19 -27 -35 -54
-35 -60 0 -5 -29 -39 -65 -76 -67 -69 -95 -78 -105 -35 -5 22 -8 20 -56 -30
l-50 -54 -2 -88 c-2 -74 -6 -94 -27 -128 -18 -28 -32 -39 -50 -39 -14 0 -29
-8 -35 -20 -6 -11 -23 -23 -38 -26 -15 -4 -38 -15 -51 -26 -13 -10 -32 -18
-42 -18 -29 0 -59 60 -59 119 0 36 -3 50 -11 45 -8 -5 -10 -32 -5 -89 6 -80 5
-84 -21 -114 -15 -17 -37 -31 -48 -31 -30 0 -49 -16 -42 -35 5 -12 13 -14 29
-9 13 5 39 8 58 9 30 0 35 -3 38 -26 5 -46 -20 -59 -113 -59 -66 0 -84 3 -89
16 -4 10 3 18 24 26 31 10 38 22 19 34 -6 3 -23 -3 -38 -13 -14 -11 -36 -23
-49 -27 -29 -10 -47 -43 -32 -61 18 -22 255 -25 322 -4 44 14 65 7 78 -25 5
-13 12 -25 17 -27 4 -2 21 -23 37 -47 26 -38 28 -45 16 -66 -11 -21 -8 -30 28
-82 21 -33 60 -90 86 -129 53 -80 114 -147 240 -260 49 -44 110 -99 135 -123
63 -59 357 -292 369 -292 8 0 31 -18 82 -64 8 -7 25 -16 37 -20 11 -4 27 -13
33 -21 15 -18 50 -20 50 -2 0 6 -12 20 -28 29 -99 64 -136 89 -202 140 -41 32
-82 64 -90 72 -8 7 -51 42 -95 76 -93 73 -89 70 -179 152 -172 156 -350 344
-340 359 12 21 59 6 127 -40 66 -45 102 -63 250 -122 108 -44 153 -64 176 -81
13 -10 28 -18 33 -18 21 0 101 -64 177 -142 45 -46 81 -85 81 -89 0 -3 8 -15
18 -26 9 -11 35 -41 57 -67 22 -26 57 -66 77 -89 21 -23 38 -45 38 -49 0 -4 7
-14 16 -23 20 -20 64 -83 64 -92 0 -4 10 -17 21 -29 28 -30 19 -54 -21 -54
-26 0 -31 -5 -36 -29 -6 -28 -58 -71 -103 -86 -10 -3 -22 -12 -25 -20 -3 -8
-13 -15 -23 -15 -10 0 -41 -15 -68 -32 -28 -18 -90 -53 -138 -78 l-87 -45 -36
20 c-22 12 -59 20 -97 21 -34 1 -85 9 -112 17 -28 8 -83 21 -123 27 -72 12
-73 13 -88 51 -9 21 -25 41 -35 44 -11 4 -30 23 -43 44 -40 63 -77 87 -142 94
-33 3 -76 2 -96 -2 -31 -7 -43 -5 -62 10 -13 10 -29 19 -35 19 -6 0 -11 6 -11
14 0 8 -28 33 -63 56 -44 28 -70 53 -85 83 -12 23 -26 49 -31 57 -5 8 -14 35
-20 60 -7 25 -16 61 -21 80 -5 19 -7 43 -4 52 5 17 66 58 87 58 7 0 26 7 42
16 17 9 73 30 125 46 52 17 102 37 110 43 8 7 25 16 38 19 26 9 29 26 4 26
-10 0 -44 -7 -75 -15 -32 -8 -66 -15 -76 -15 -10 0 -24 -7 -31 -15 -14 -17
-65 -20 -75 -6 -3 6 11 13 30 17 26 5 35 11 33 23 -3 13 -16 16 -85 13 -57 -2
-93 2 -118 13 -51 21 -57 19 -77 -16 -13 -22 -24 -30 -40 -27 -28 4 -32 29
-52 318 -8 107 -19 211 -24 230 -6 19 -13 107 -16 195 -7 177 -24 284 -49 310
-21 20 -21 13 3 68 11 25 27 48 36 51 8 3 12 11 9 17 -5 7 -12 5 -23 -5 -10
-8 -30 -16 -47 -18 -25 -3 -32 -10 -46 -51 -24 -65 -36 -79 -60 -66 -11 5 -19
20 -19 34 0 13 -5 36 -11 52 -11 29 -47 191 -56 255 -6 41 23 100 58 118 22
12 26 50 5 50 -8 0 -21 -9 -29 -20 -8 -12 -27 -22 -43 -23 -28 -2 -29 0 -37
62 -7 57 -6 66 13 86 26 28 25 35 -4 35 -13 0 -45 17 -72 38 -39 31 -65 42
-128 54 -112 22 -164 4 -179 -62 -19 -84 -31 -118 -69 -188 -23 -42 -49 -92
-57 -109 -18 -40 -28 -41 -43 -8 -16 35 -32 26 -39 -21 -5 -30 -19 -51 -70
-98 l-63 -59 41 6 c58 10 60 -6 19 -132 -19 -58 -44 -146 -56 -196 -13 -52
-34 -109 -51 -134 -16 -25 -34 -63 -40 -85 -6 -23 -17 -51 -24 -62 -18 -28
-52 -123 -70 -197 -15 -56 -35 -101 -75 -162 -11 -16 -26 -41 -33 -55 -6 -14
-21 -38 -31 -53 -20 -30 -17 -43 9 -34 8 4 15 16 15 27 0 24 28 27 37 4 3 -9
-2 -33 -12 -53 -52 -100 -101 -180 -132 -211 l-34 -35 -19 25 c-11 14 -20 20
-20 13 0 -6 -11 -24 -24 -40 -13 -15 -34 -48 -47 -73 -13 -25 -41 -70 -62
-101 -20 -31 -37 -61 -37 -66 0 -6 -6 -16 -14 -22 -8 -7 -17 -27 -20 -45 -4
-19 -13 -36 -20 -39 -13 -5 -36 -78 -36 -116 0 -33 29 -25 69 19 44 48 68 52
69 11 0 -17 5 -39 11 -50 6 -11 11 -27 11 -35 0 -19 -26 -22 -32 -4 -2 6 -10
8 -16 4 -8 -5 -10 -21 -6 -46 5 -31 3 -40 -13 -48 -11 -6 -25 -29 -31 -50 -7
-22 -19 -45 -27 -52 -8 -7 -17 -28 -21 -49 -4 -20 -13 -49 -21 -65 -8 -15 -12
-38 -9 -49 3 -12 -3 -30 -14 -44 -10 -14 -26 -50 -35 -81 -9 -31 -22 -63 -28
-70 -7 -9 -7 -16 0 -23 20 -20 48 -4 79 46 18 28 43 63 57 80 l24 29 68 -28
67 -29 36 21 c21 11 40 27 43 34 4 7 22 40 42 73 19 33 37 77 40 97 7 45 52
108 77 108 10 0 28 12 39 26 17 22 32 28 74 31 86 7 101 12 87 28 -7 8 -21 15
-31 15 -40 0 -26 19 24 30 28 7 63 19 77 26 14 7 54 25 90 39 105 42 133 54
172 75 20 11 49 20 64 20 15 0 37 9 49 20 14 13 28 18 39 14 24 -9 14 -28 -17
-32 -15 -2 -32 -12 -37 -23 -7 -12 -21 -19 -40 -19 -37 0 -45 -14 -30 -50 21
-50 46 -48 74 8 18 34 42 41 75 20 10 -6 26 -8 37 -4 18 8 18 9 -3 19 -31 14
-29 35 5 42 29 7 29 6 93 50 56 38 78 51 109 67 14 7 38 23 54 36 29 23 66 26
73 6 3 -10 -78 -74 -94 -74 -3 0 -27 -14 -54 -31 -46 -30 -55 -49 -24 -49 15
0 104 45 120 61 5 5 26 9 47 9 43 0 41 4 58 -125 6 -44 15 -100 21 -125 5 -25
14 -76 18 -115 13 -106 41 -232 61 -280 24 -57 71 -85 141 -85 53 0 54 0 117
67 l64 67 -4 187 c-3 171 -8 213 -24 197 -3 -4 -9 -31 -13 -62 -8 -58 -17 -79
-25 -55 -42 127 -64 304 -37 304 8 0 22 -13 31 -30 9 -16 41 -49 72 -72 51
-39 126 -127 212 -248 20 -27 44 -61 53 -74 10 -13 16 -38 15 -57 -3 -36 8
-43 28 -19 7 8 16 15 20 15 4 0 39 -29 77 -64 38 -35 99 -81 137 -103 37 -21
76 -43 86 -48 10 -6 24 -16 31 -22 8 -6 57 -29 109 -52 108 -46 238 -71 368
-71 74 0 82 -2 82 -19 0 -12 -27 -42 -67 -76 -38 -31 -84 -70 -104 -87 -20
-16 -42 -34 -50 -38 -27 -17 2 -24 30 -7 16 9 34 17 41 17 16 0 49 26 178 138
97 85 171 132 208 132 20 0 132 58 189 98 67 47 150 128 186 180 81 120 144
330 120 405 -6 18 -11 61 -13 97 -2 62 -1 67 40 122 23 31 42 61 42 66 0 5 7
15 15 22 8 7 17 28 21 49 4 20 11 39 16 42 12 8 19 76 11 107 -3 12 -11 22
-19 22 -10 0 -14 -15 -14 -59 0 -50 -5 -67 -34 -113 -59 -91 -63 -95 -78 -80
-19 19 -21 249 -2 279 12 20 11 23 -22 42 -19 12 -37 21 -38 21 -2 0 -33 -29
-69 -64 -37 -35 -75 -66 -85 -68 -20 -6 -84 32 -132 76 -42 39 -226 164 -265
180 -5 2 -31 11 -56 20 -26 9 -54 25 -63 35 -16 17 -15 20 18 45 20 14 59 38
88 53 29 14 55 29 58 33 3 4 19 14 36 23 50 26 106 102 112 153 4 41 2 47 -32
80 -23 22 -43 34 -52 30 -19 -7 -9 -25 22 -36 20 -8 24 -16 24 -53 0 -37 -5
-48 -42 -83 -74 -70 -100 -83 -190 -95 -46 -6 -92 -15 -103 -19 -11 -5 -57
-12 -102 -15 -78 -7 -85 -6 -130 21 -72 42 -149 102 -176 137 -14 18 -37 63
-52 100 -25 64 -26 69 -11 92 9 14 23 25 31 25 28 0 26 21 -4 31 -54 19 -52
33 37 216 53 112 169 204 354 283 40 17 82 35 93 40 70 32 131 48 208 54 76 6
93 5 115 -11 16 -10 47 -18 77 -18 46 -1 109 -27 165 -70 8 -6 32 -17 52 -23
31 -11 42 -11 67 2 36 19 45 44 37 100 -7 41 -39 86 -82 113 -10 7 -35 23 -54
35 -19 13 -47 29 -62 35 -32 14 -41 58 -10 49 9 -2 32 -7 50 -11 18 -4 32 -13
32 -21 0 -8 7 -14 16 -14 9 0 38 -22 64 -50 45 -47 70 -62 70 -40 0 16 -61 80
-76 80 -8 0 -19 9 -26 20 -7 11 -18 20 -24 20 -5 0 -23 14 -40 31 -28 30 -29
31 -9 44 36 25 45 36 45 50 0 21 -12 19 -88 -16 -62 -29 -70 -31 -110 -20 -24
6 -48 8 -54 5 -6 -4 -54 -8 -107 -9 -67 -1 -114 -7 -156 -22 -41 -14 -94 -22
-165 -24 -92 -4 -105 -2 -108 13 -4 23 57 53 150 75 72 18 234 23 325 11 39
-5 42 -4 38 16 -9 38 7 46 121 57 60 6 133 13 162 16 28 3 52 8 52 12 0 9
-122 29 -205 34 -33 2 -114 0 -180 -4z m-449 -266 c15 -16 15 -18 -2 -30 -10
-7 -23 -13 -30 -13 -7 0 -52 -20 -102 -45 -49 -25 -95 -45 -101 -45 -38 0 28
99 87 129 47 24 125 26 148 4z m-1348 -555 c11 -35 18 -123 28 -333 l5 -130
-19 40 c-27 55 -42 103 -42 136 0 15 -7 54 -15 86 -22 85 -30 185 -16 211 18
33 48 28 59 -10z m678 -144 c9 -35 -3 -113 -21 -141 -17 -25 -52 -30 -102 -13
-30 11 -53 45 -53 78 0 21 58 69 94 78 14 3 29 10 32 15 12 19 44 9 50 -17z
m-1139 -13 c-3 -16 -16 -49 -29 -73 -59 -115 -88 -167 -98 -173 -6 -4 -15 -18
-20 -31 -5 -13 -14 -24 -20 -24 -15 0 -12 52 5 74 8 11 15 30 15 42 0 13 5 26
11 30 6 3 18 21 26 38 36 77 86 145 107 146 5 0 6 -13 3 -29z m103 -6 c15 -19
7 -44 -30 -85 -17 -19 -30 -37 -30 -42 0 -4 -7 -8 -15 -8 -8 0 -15 -7 -15 -15
0 -8 5 -15 10 -15 6 0 13 7 16 15 4 8 12 15 19 15 7 0 18 7 25 15 17 21 37 19
45 -5 7 -21 -31 -105 -64 -145 -9 -11 -26 -37 -37 -58 -10 -21 -27 -45 -36
-54 -18 -16 -25 -63 -9 -63 10 0 93 105 114 145 18 37 53 69 60 57 6 -9 32
-122 41 -183 4 -22 1 -49 -8 -70 -14 -32 -13 -35 10 -60 19 -20 27 -45 38
-119 16 -105 8 -147 -27 -155 -12 -3 -112 -4 -222 -3 -168 3 -200 5 -202 18
-2 13 30 43 77 71 13 7 12 12 -7 30 -21 21 -23 21 -48 5 -14 -9 -30 -27 -34
-40 -5 -12 -25 -37 -45 -54 -28 -25 -46 -32 -77 -32 -47 0 -57 16 -38 63 12
29 73 137 126 225 13 20 36 63 53 94 48 94 75 130 143 197 56 55 64 67 56 85
-8 16 -4 31 16 66 14 25 31 59 39 75 23 49 35 55 56 30z m1994 -941 c72 -40
247 -219 277 -284 31 -65 43 -129 29 -150 -8 -12 -15 -9 -37 20 -16 19 -38 45
-50 56 -13 12 -23 27 -23 33 0 16 -132 181 -207 259 -13 12 -23 27 -23 32 0 5
-9 14 -20 20 -23 12 -27 40 -6 40 7 0 34 -12 60 -26z m-2284 -204 c13 -9 12
-12 -4 -25 -11 -8 -28 -15 -38 -15 -9 0 -32 -6 -50 -14 -53 -22 -171 -56 -195
-56 -15 0 -23 6 -23 18 0 29 48 86 78 93 44 11 216 9 232 -1z m2560 -430 c0
-53 -32 -102 -112 -174 -64 -57 -99 -69 -106 -33 -2 12 3 17 18 17 22 0 90 48
90 64 0 5 8 15 18 22 14 10 15 15 4 25 -10 11 -19 6 -50 -22 -70 -65 -101 -81
-167 -87 -37 -2 -65 0 -69 6 -6 10 54 62 73 62 5 0 22 10 38 23 36 28 60 43
99 61 17 8 34 19 38 24 3 6 19 13 35 17 16 3 35 13 42 21 6 8 20 14 30 14 15
0 19 -8 19 -40z"/>
<path d="M2441 3446 c-20 -21 -24 -43 -37 -186 -8 -89 -16 -166 -19 -170 -3
-5 -9 -71 -15 -147 -9 -134 -30 -235 -51 -249 -6 -3 -12 -4 -15 -2 -2 2 -6
150 -9 329 -3 178 -8 332 -11 342 -3 9 -10 14 -16 11 -8 -5 -10 -207 -7 -683
4 -652 -5 -1136 -22 -1147 -12 -7 -26 25 -32 73 -5 44 -36 123 -48 123 -17 0
-16 -31 2 -54 26 -34 24 -159 -3 -164 -10 -2 -19 6 -23 20 -4 13 -25 61 -47
108 -114 242 -139 298 -182 398 -20 46 -36 88 -36 94 0 10 -19 55 -64 148 -33
69 -176 320 -208 365 -40 55 -238 356 -238 361 0 2 -15 24 -34 49 -47 61 -52
80 -26 113 132 172 155 227 107 256 -15 9 -23 6 -47 -21 -26 -28 -27 -35 -18
-61 11 -29 10 -35 -16 -80 -18 -31 -73 -65 -91 -55 -17 10 -81 99 -100 139 -8
17 -31 44 -52 60 -37 28 -42 29 -147 29 -159 0 -150 21 -156 -350 -4 -216 -8
-297 -18 -307 -15 -15 -16 -52 -2 -79 16 -28 -12 -73 -106 -171 -41 -44 -49
-46 -58 -15 -10 38 -7 397 4 418 8 13 6 36 -5 80 -12 44 -13 65 -6 72 18 18
12 37 -12 37 -13 0 -28 5 -35 12 -18 18 -22 6 -11 -37 12 -50 11 -647 -1 -659
-6 -6 -15 -5 -23 2 -19 16 -27 5 -27 -37 0 -59 -11 -81 -45 -95 -26 -11 -34
-21 -39 -52 -3 -22 -14 -72 -23 -111 -15 -68 -15 -76 2 -130 12 -41 30 -70 59
-98 54 -53 76 -118 76 -226 1 -170 25 -323 57 -360 7 -9 17 -33 20 -53 7 -45
18 -53 33 -25 13 24 7 145 -15 316 -13 100 -10 213 6 213 4 0 9 -5 11 -12 3
-7 12 -9 22 -5 14 5 16 14 11 37 -6 27 -4 30 18 30 13 0 30 -7 37 -15 11 -14
14 -13 24 1 7 9 21 15 32 12 18 -3 19 -14 22 -168 3 -182 -1 -200 -54 -251
-49 -47 -48 -56 18 -299 14 -50 22 -123 27 -220 5 -131 8 -148 29 -175 42 -53
87 -76 148 -76 63 0 75 7 111 68 25 43 26 50 34 306 5 144 13 312 18 372 6 61
10 177 10 258 l1 148 30 10 c36 13 38 26 6 39 -13 5 -26 12 -29 17 -3 4 -6 96
-8 203 -4 182 -3 195 14 198 19 4 57 -23 57 -40 0 -14 48 -115 57 -121 4 -3
19 4 32 14 l24 20 -26 27 c-29 31 -77 140 -77 175 0 13 -6 32 -14 42 -13 18
-14 18 -25 -3 -16 -31 -26 -28 -52 16 -19 31 -23 55 -27 145 -10 256 30 298
134 142 19 -27 61 -88 94 -135 33 -47 77 -119 97 -160 20 -41 51 -98 69 -127
18 -28 36 -68 40 -88 3 -20 17 -57 30 -81 13 -24 35 -74 49 -111 15 -38 44
-103 66 -145 21 -43 39 -85 39 -94 0 -9 8 -29 17 -45 27 -46 6 -46 -34 -1 -20
23 -42 42 -50 42 -18 0 -17 -35 2 -50 8 -7 15 -19 15 -26 0 -8 8 -22 18 -32
43 -45 81 -110 75 -130 -3 -15 7 -42 34 -84 21 -35 47 -87 56 -115 22 -67 93
-203 116 -223 10 -9 21 -28 25 -43 8 -34 30 -31 34 5 2 19 -2 27 -17 31 -28 7
-31 70 -3 65 10 -2 18 -14 20 -33 2 -16 12 -35 23 -43 14 -10 19 -25 19 -63 0
-45 5 -56 46 -107 25 -31 60 -85 77 -121 56 -116 156 -191 254 -191 17 0 35
-5 39 -12 4 -6 6 -61 5 -122 -2 -110 9 -173 29 -161 6 4 10 73 10 173 0 141 4
185 26 282 13 63 27 126 30 140 3 14 19 80 35 146 16 67 29 131 29 142 0 10 9
48 20 82 11 34 20 77 20 96 0 41 12 45 129 43 50 -1 93 0 96 3 3 3 -1 13 -10
22 -12 11 -35 16 -81 16 -56 0 -68 3 -88 25 -13 14 -27 25 -31 25 -5 0 -30
-24 -56 -52 -37 -41 -47 -58 -43 -75 4 -14 2 -23 -5 -23 -14 0 -15 202 -2 281
5 30 19 131 31 224 11 94 28 208 36 255 8 47 19 129 24 182 5 54 17 136 25
184 8 48 15 117 15 154 0 38 5 70 10 72 13 4 30 105 30 175 0 35 5 55 15 60 9
5 18 35 24 76 5 38 15 74 21 82 16 19 30 74 23 91 -7 20 -37 17 -57 -5 -12
-13 -21 -51 -29 -123 -7 -57 -15 -108 -19 -114 -4 -7 -12 -60 -17 -119 -7 -77
-14 -112 -27 -126 -12 -13 -19 -45 -24 -106 -4 -53 -9 -81 -14 -71 -10 21 0
178 30 488 17 172 13 380 -8 426 -15 32 -77 54 -151 54 -54 0 -67 -4 -86 -24z
m-1649 -1042 c22 -212 21 -490 -2 -504 -8 -6 -40 -9 -70 -8 -52 3 -56 5 -71
38 -20 44 -47 468 -31 497 16 29 136 151 147 149 6 -2 18 -79 27 -172z m-295
-204 c21 -42 16 -130 -11 -180 -28 -53 -43 -60 -52 -25 -3 14 -15 30 -25 36
-30 15 -26 85 6 115 14 13 25 34 25 47 0 45 36 49 57 7z"/>
<path d="M3280 3023 c-143 -136 -229 -223 -288 -291 -72 -85 -43 -102 116 -71
38 8 62 18 62 26 0 21 -66 16 -88 -7 -24 -26 -52 -17 -52 18 0 18 24 50 89
116 164 167 291 303 291 311 0 16 -29 -6 -130 -102z"/>
<path d="M1406 994 c-3 -9 -6 -29 -6 -45 0 -16 -9 -38 -20 -49 -13 -13 -20
-33 -20 -57 0 -20 -7 -45 -16 -55 -12 -13 -18 -44 -22 -112 -4 -84 -3 -95 16
-114 11 -11 23 -29 27 -41 3 -12 15 -21 26 -21 10 0 28 -9 39 -20 23 -23 117
-28 153 -8 21 11 20 13 -18 19 -22 5 -60 8 -85 9 -34 1 -53 8 -79 30 l-33 28
-4 111 c-4 101 -3 112 16 131 13 13 20 33 20 56 0 21 8 47 20 61 23 30 27 93
6 93 -8 0 -17 -7 -20 -16z"/>
</g>
</svg>
